# Blender 5.1.0
# www.blender.org
o Plane.002
v 0.024206 0.000000 -2.744709
v 0.368666 0.000000 -2.661336
v 0.483852 0.000000 -2.349786
v 0.370860 0.000000 -2.112832
v 0.493725 0.000000 -1.992161
v 0.701059 0.000000 -2.196205
v 0.639627 0.000000 -2.316876
v 0.751522 0.000000 -2.441935
v 0.921558 0.000000 -2.532986
v 1.009318 0.000000 -2.488009
v 1.034550 0.000000 -2.326749
v 0.919364 0.000000 -2.162198
v 0.934722 0.000000 -2.081019
v 0.473979 0.000000 -1.659769
v 0.341240 0.000000 -1.771665
v 0.274323 0.000000 -1.677322
v 0.461911 0.000000 -1.333959
v 0.422419 0.000000 -1.246198
v 0.149264 0.000000 -1.235228
v -0.046003 0.000000 -0.747061
v 0.217279 0.000000 -0.205140
v -0.675685 0.000000 0.000000
v -0.779627 0.000000 -0.196696
v -0.528166 0.000000 -0.361571
v -0.467831 0.000000 -0.878258
v -0.251720 0.000000 -1.206264
v -0.364712 0.000000 -1.173353
v -0.501838 0.000000 -1.546333
v -0.431629 0.000000 -1.606669
v -0.438211 0.000000 -1.745988
v -0.607151 0.000000 -2.116776
v -0.513905 0.000000 -2.230864
v -0.666389 0.000000 -2.468911
v -0.451375 0.000000 -2.615910
v -0.281339 0.000000 -2.442583
v -0.325220 0.000000 -2.343853
v -0.295600 0.000000 -2.149682
v -0.133243 0.000000 -2.231957
v -0.188094 0.000000 -2.524859
vn -0.0000 1.0000 -0.0000
vt 0.455586 0.769525
vt 0.613747 0.616094
vt 0.623620 0.729817
vt 0.323945 0.146063
vt 0.240124 0.091105
vt 0.274772 0.025539
vt 0.572426 0.093919
vt 0.484666 0.274559
vt 0.549755 0.437282
vt 0.640806 0.440939
vt 0.653970 0.470192
vt 0.416093 0.427627
vt 0.344056 0.318292
vt 0.591441 0.584646
vt 0.657993 0.578796
vt 0.664575 0.689593
vt 0.811574 0.719212
vt 0.356124 0.561096
vt 0.806455 0.746272
vt 0.733686 0.757608
vt 0.844850 0.801122
vt 0.750507 0.839518
vt 0.353930 0.607535
vt 0.332721 0.540984
vt 0.378429 0.416657
vt 0.836439 0.854876
vt 0.807186 0.869868
vt 0.401466 0.742100
vt 0.328698 0.769160
vt 0.297616 0.731131
vt 0.713209 0.797831
vt 0.349542 0.897509
vt 0.277870 0.848510
vt 0.391593 0.806823
vt 0.406220 0.839734
vt 0.508069 0.940442
vt 0.437302 0.867159
vt 0.622889 0.912651
vt 0.661284 0.808801
s 0
f 38/1/1 15/2/1 4/3/1
f 24/4/1 23/5/1 22/6/1
f 22/6/1 21/7/1 24/4/1
f 21/7/1 20/8/1 24/4/1
f 19/9/1 18/10/1 17/11/1
f 20/8/1 19/9/1 26/12/1
f 24/4/1 20/8/1 25/13/1
f 26/12/1 25/13/1 20/8/1
f 19/9/1 17/11/1 16/14/1
f 15/2/1 14/15/1 5/16/1
f 14/15/1 13/17/1 5/16/1
f 19/9/1 16/14/1 29/18/1
f 26/12/1 19/9/1 29/18/1
f 13/17/1 12/19/1 6/20/1
f 13/17/1 6/20/1 5/16/1
f 12/19/1 11/21/1 8/22/1
f 6/20/1 12/19/1 8/22/1
f 16/14/1 15/2/1 38/1/1
f 29/18/1 16/14/1 30/23/1
f 28/24/1 27/25/1 26/12/1
f 29/18/1 28/24/1 26/12/1
f 11/21/1 10/26/1 9/27/1
f 30/23/1 16/14/1 37/28/1
f 32/29/1 31/30/1 37/28/1
f 31/30/1 30/23/1 37/28/1
f 37/28/1 16/14/1 38/1/1
f 9/27/1 8/22/1 11/21/1
f 8/22/1 7/31/1 6/20/1
f 34/32/1 33/33/1 36/34/1
f 33/33/1 32/29/1 36/34/1
f 36/34/1 35/35/1 34/32/1
f 37/28/1 36/34/1 32/29/1
f 1/36/1 39/37/1 38/1/1
f 2/38/1 1/36/1 38/1/1
f 15/2/1 5/16/1 4/3/1
f 4/3/1 3/39/1 38/1/1
f 3/39/1 2/38/1 38/1/1
