# Blender 5.1.0
# www.blender.org
o Plane.004
v 0.298301 0.000000 -1.962274
v 0.435427 0.000000 -1.715446
v 0.523188 0.000000 -1.720931
v 0.573650 0.000000 -1.770297
v 0.830350 0.000000 -1.701184
v 0.861067 0.000000 -1.746162
v 1.060722 0.000000 -1.758235
v 1.118276 0.000000 -1.675901
v 1.281304 0.000000 -1.612634
v 1.327499 0.000000 -1.331303
v 1.410537 0.000000 -1.245219
v 1.297027 0.000000 -1.096672
v 1.228464 0.000000 -0.962591
v 1.436439 0.000000 -0.722620
v 1.399969 0.000000 -0.531209
v 1.352270 0.000000 -0.178263
v 1.340081 0.000000 -0.028949
v 1.210574 0.000000 -0.019044
v 1.160294 0.000000 0.000000
v 0.861664 0.000000 -0.022854
v 0.796148 0.000000 -0.041138
v 0.778626 0.000000 -0.019806
v 0.281925 0.000000 -0.063999
v 0.200411 0.000000 -0.049524
v 0.153941 0.000000 -0.111230
v 0.034337 0.000000 -0.119606
v -0.051748 0.000000 -0.027426
v -0.332095 0.000000 -0.060182
v -0.356473 0.000000 -0.159979
v -0.431130 0.000000 -0.074656
v -0.706144 0.000000 -0.102081
v -0.764042 0.000000 -0.184352
v -0.854697 0.000000 -0.089888
v -1.104571 0.000000 -0.106647
v -1.332353 0.000000 -0.119599
v -1.349875 0.000000 -0.206446
v -1.314831 0.000000 -0.301671
v -1.354445 0.000000 -0.485266
v -1.425294 0.000000 -0.708477
v -1.398631 0.000000 -0.829607
v -1.204369 0.000000 -1.029964
v -1.192942 0.000000 -1.136616
v -1.370444 0.000000 -1.309548
v -1.359779 0.000000 -1.426107
v -1.100001 0.000000 -1.793301
v -1.006299 0.000000 -1.864915
v -0.919452 0.000000 -1.860344
v -0.705383 0.000000 -1.781878
v -0.679481 0.000000 -1.828348
v -0.565210 0.000000 -1.914435
v -0.411324 0.000000 -1.899197
v -0.341237 0.000000 -1.899197
v -0.249058 0.000000 -1.781879
v -0.007564 0.000000 -1.802442
v 0.222503 0.000000 -1.838247
v 0.211076 0.000000 -1.920523
vn -0.0000 1.0000 -0.0000
vt 0.645142 0.754297
vt 0.574168 0.795231
vt 0.497479 0.783296
vt 0.033790 0.459017
vt 0.024902 0.418641
vt 0.048518 0.344237
vt 0.061723 0.283039
vt 0.050042 0.251297
vt 0.131810 0.218031
vt 0.055882 0.222348
vt 0.098544 0.525803
vt 0.245319 0.243932
vt 0.215101 0.212444
vt 0.264619 0.216509
vt 0.381176 0.235808
vt 0.356290 0.207367
vt 0.389302 0.202542
vt 0.482751 0.191624
vt 0.511446 0.222350
vt 0.046740 0.657851
vt 0.043185 0.618998
vt 0.102353 0.561354
vt 0.416981 0.776442
vt 0.551314 0.219558
vt 0.566804 0.198990
vt 0.593975 0.203815
vt 0.759542 0.189084
vt 0.765383 0.196194
vt 0.787221 0.190100
vt 0.966656 0.359551
vt 0.886765 0.182482
vt 0.950757 0.241903
vt 0.903525 0.188830
vt 0.946694 0.192131
vt 0.909488 0.503345
vt 0.264872 0.776441
vt 0.133333 0.780249
vt 0.193516 0.802597
vt 0.164567 0.804120
vt 0.311597 0.820627
vt 0.273506 0.791931
vt 0.362892 0.815547
vt 0.978813 0.423355
vt 0.932342 0.548039
vt 0.970179 0.597555
vt 0.942500 0.626249
vt 0.776784 0.749543
vt 0.927101 0.720026
vt 0.872759 0.741116
vt 0.853574 0.768560
vt 0.787022 0.764536
vt 0.691217 0.772581
vt 0.674396 0.756125
vt 0.386254 0.815548
vt 0.599434 0.836573
vt 0.570359 0.822656
s 0
f 2/1/1 55/2/1 54/3/1
f 40/4/1 39/5/1 38/6/1
f 37/7/1 36/8/1 34/9/1
f 36/8/1 35/10/1 34/9/1
f 40/4/1 38/6/1 41/11/1
f 38/6/1 37/7/1 32/12/1
f 41/11/1 38/6/1 32/12/1
f 34/9/1 33/13/1 32/12/1
f 32/12/1 31/14/1 29/15/1
f 31/14/1 30/16/1 29/15/1
f 29/15/1 28/17/1 27/18/1
f 37/7/1 34/9/1 32/12/1
f 29/15/1 27/18/1 26/19/1
f 41/11/1 32/12/1 29/15/1
f 44/20/1 43/21/1 42/22/1
f 42/22/1 41/11/1 53/23/1
f 41/11/1 29/15/1 53/23/1
f 29/15/1 26/19/1 53/23/1
f 26/19/1 25/24/1 2/1/1
f 53/23/1 26/19/1 54/3/1
f 25/24/1 24/25/1 23/26/1
f 23/26/1 22/27/1 21/28/1
f 21/28/1 20/29/1 15/30/1
f 20/29/1 19/31/1 16/32/1
f 18/33/1 17/34/1 16/32/1
f 20/29/1 16/32/1 15/30/1
f 19/31/1 18/33/1 16/32/1
f 25/24/1 23/26/1 13/35/1
f 23/26/1 21/28/1 13/35/1
f 42/22/1 53/23/1 48/36/1
f 45/37/1 44/20/1 42/22/1
f 47/38/1 46/39/1 45/37/1
f 50/40/1 49/41/1 51/42/1
f 49/41/1 48/36/1 51/42/1
f 48/36/1 47/38/1 45/37/1
f 45/37/1 42/22/1 48/36/1
f 13/35/1 21/28/1 15/30/1
f 15/30/1 14/43/1 13/35/1
f 12/44/1 11/45/1 10/46/1
f 13/35/1 12/44/1 5/47/1
f 12/44/1 10/46/1 5/47/1
f 10/46/1 9/48/1 8/49/1
f 8/49/1 7/50/1 5/47/1
f 7/50/1 6/51/1 5/47/1
f 5/47/1 4/52/1 3/53/1
f 10/46/1 8/49/1 5/47/1
f 53/23/1 52/54/1 51/42/1
f 53/23/1 51/42/1 48/36/1
f 25/24/1 13/35/1 2/1/1
f 5/47/1 3/53/1 13/35/1
f 3/53/1 2/1/1 13/35/1
f 2/1/1 1/55/1 55/2/1
f 1/55/1 56/56/1 55/2/1
f 54/3/1 26/19/1 2/1/1
